<svg viewBox="0 0 160 161" fill="none" xmlns="http://www.w3.org/2000/svg">
  <path d="m38.095 96.367 24.65-6.602.013-.014 14.252-24.69-6.598-24.663-11.579 3.097 6.599 24.662a8.1 8.1 0 0 1-.817 6.208 8.1 8.1 0 0 1-4.966 3.815L35 84.782zm59.161-6.602 24.649 6.602L125 84.782l-24.649-6.602a8.1 8.1 0 0 1-4.966-3.815 8.1 8.1 0 0 1-.817-6.208l6.599-24.662-11.579-3.097L82.99 65.06l14.252 24.691zm-3.011 5.209 18.051 18.06-8.47 8.474-18.05-18.06a8.1 8.1 0 0 0-5.783-2.393 8.1 8.1 0 0 0-5.782 2.393l-18.051 18.06-8.47-8.474 18.051-18.06z" fill="#00DE73"/>
</svg>